<?xml version="1.0" encoding="UTF-8"?>
<svg id="Layer_2" data-name="Layer 2" xmlns="http://www.w3.org/2000/svg" viewBox="0 0 522.93 197.36">
  <defs>
    <style>
      .cls-1 {
        fill: #256e87;
      }

      .cls-2 {
        fill: #fff;
      }

      .cls-3 {
        fill: #6bc0dd;
      }

      .cls-4 {
        fill: #206584;
      }

      .cls-5 {
        fill: #2d85b5;
      }

      .cls-6 {
        fill: #bfbfbf;
      }

      .cls-7 {
        fill: #409cbc;
      }

      .cls-8 {
        fill: #ccf5ff;
      }

      .cls-9 {
        fill: #479ec4;
      }

      .cls-10 {
        fill: #4eafd1;
      }
    </style>
  </defs>
  <g id="Layer_1-2" data-name="Layer 1">
    <g>
      <g>
        <rect class="cls-8" width="133.87" height="197.36"/>
        <polygon class="cls-2" points="138.98 22.07 133.87 26.2 133.87 25.77 138.98 22.07"/>
        <polygon class="cls-9" points="200.72 91.68 160.96 68.54 153.71 64.32 141.44 57.17 133.87 52.62 129.98 50.28 131 49.66 131.04 49.64 133.87 51.33 142.68 56.63 150.4 61.3 153.71 63.28 153.71 63.29 160.96 67.67 200.72 91.68"/>
        <polygon class="cls-9" points="96.27 103.5 84.63 96.51 26.6 61.46 85.87 95.98 97.34 102.86 96.27 103.5"/>
        <polygon class="cls-9" points="127.5 57.47 105.37 73.7 105.36 73.7 92.17 65.78 92.17 65.76 114.3 49.55 127.5 57.47"/>
        <polygon class="cls-1" points="141.53 65.89 119.38 82.11 105.37 73.7 127.5 57.47 141.53 65.89"/>
        <polygon class="cls-3" points="105.36 73.7 83.91 89.42 83.89 89.42 70.7 81.5 92.17 65.78 105.36 73.7"/>
        <polygon class="cls-7" points="119.38 82.11 97.92 97.84 83.91 89.42 105.36 73.7 105.37 73.7 119.38 82.11"/>
        <polygon class="cls-9" points="138.98 22.07 133.87 26.2 122.02 35.81 116.01 40.66 114.8 41.64 110.61 46.63 110.61 42.65 114.56 39.79 120.95 35.15 133.87 25.77 138.98 22.07"/>
        <g>
          <polygon class="cls-4" points="88.29 197.36 74.25 197.36 70.89 195.33 68.64 193.98 63.16 190.71 60.91 189.36 58.5 187.91 58.5 179.48 59.57 180.12 61.81 181.47 67.29 184.76 69.54 186.11 75.01 189.4 77.26 190.75 82.75 194.04 85 195.39 88.03 197.2 88.29 197.36"/>
          <polygon class="cls-4" points="97.74 191.16 97.74 197.36 94.05 197.36 88.03 193.74 87.61 193.5 85.36 192.15 79.89 188.86 77.64 187.51 72.17 184.22 69.92 182.87 64.44 179.58 62.19 178.23 58.5 176.02 58.5 167.61 60.84 169.01 63.09 170.36 68.57 173.65 70.81 175 76.29 178.29 78.54 179.64 84.01 182.92 86.26 184.28 88.03 185.33 97.74 191.16"/>
          <polygon class="cls-4" points="97.74 179.28 97.74 187.7 58.5 164.15 58.5 155.73 97.74 179.28"/>
          <polygon class="cls-4" points="97.74 167.4 97.74 175.81 58.5 152.27 58.5 143.85 97.74 167.4"/>
          <polygon class="cls-4" points="97.74 155.52 97.74 163.94 58.5 140.39 58.5 131.97 97.74 155.52"/>
          <polygon class="cls-4" points="97.74 143.64 97.74 152.06 58.5 128.51 58.5 120.09 97.74 143.64"/>
          <polygon class="cls-4" points="97.74 131.76 97.74 140.18 58.5 116.63 58.5 108.21 97.74 131.76"/>
          <polygon class="cls-4" points="97.74 119.88 97.74 128.29 58.5 104.75 58.5 96.33 97.74 119.88"/>
          <polygon class="cls-4" points="68.49 197.36 58.5 197.36 58.5 191.37 60.54 192.6 66.01 195.87 68.26 197.24 68.49 197.36"/>
          <polygon class="cls-5" points="153.71 174.63 153.71 183.05 138.18 194.21 133.87 197.31 133.81 197.36 122.12 197.36 133.87 188.9 138.18 185.8 153.71 174.63"/>
          <polygon class="cls-5" points="153.71 162.74 153.71 171.16 138.18 182.34 133.87 185.43 117.31 197.36 105.61 197.36 133.87 177.01 138.18 173.91 153.71 162.74"/>
          <polygon class="cls-5" points="153.71 150.85 153.71 159.28 138.18 170.46 133.87 173.56 100.82 197.36 97.74 197.36 97.74 191.16 133.87 165.13 138.18 162.03 153.71 150.85"/>
          <polygon class="cls-5" points="153.71 138.99 153.71 147.4 138.19 158.58 97.74 187.69 97.74 179.28 138.19 150.16 153.71 138.99"/>
          <polygon class="cls-5" points="153.71 127.1 153.71 135.52 138.19 146.7 97.74 175.81 97.74 167.39 138.19 138.28 153.71 127.1"/>
          <polygon class="cls-5" points="153.71 115.22 153.71 123.64 138.19 134.82 97.74 163.94 97.74 155.52 138.19 126.4 153.71 115.22"/>
          <polygon class="cls-5" points="153.71 103.34 153.71 111.76 138.19 122.94 97.74 152.06 97.74 143.64 138.19 114.52 153.71 103.34"/>
          <polygon class="cls-5" points="153.71 91.47 153.71 99.88 138.19 111.06 97.74 140.17 97.74 131.76 138.19 102.64 153.71 91.47"/>
          <polygon class="cls-5" points="153.71 79.58 153.71 88 138.19 99.18 97.74 128.29 97.74 119.88 138.19 90.76 153.71 79.58"/>
          <path class="cls-5" d="M150.4,61.3l-12.24-7.36-4.29-2.58-2.87-1.71-14.99-9-1.45-.87-.09-.05-48.36,34.84-7.6,5.47v11.99l29.51,17.71,9.73,5.83,36.12-26.03,4.29-3.1,15.54-11.16v-12.01l-3.31-1.97ZM146.27,65.68l-8.1,5.9-4.29,3.15-36.12,26.48-31.79-19.09-2.09-1.25,50.61-37.04,19.4,11.63,4.29,2.58,10.19,6.09-2.09,1.54Z"/>
          <polygon class="cls-10" points="148.37 64.14 146.26 65.68 138.17 60.84 114.48 46.63 65.96 82.13 63.86 80.87 114.48 43.83 138.17 58.04 148.37 64.14"/>
        </g>
        <g>
          <polygon class="cls-4" points="6.32 187.18 23.28 197.36 11.25 197.36 6.32 194.4 6.32 187.18"/>
          <polygon class="cls-4" points="39.98 197.19 39.98 197.36 28.23 197.36 6.32 184.21 6.32 176.99 39.98 197.19"/>
          <polygon class="cls-4" points="39.99 187 39.99 194.22 6.31 174.01 6.31 166.78 39.99 187"/>
          <polygon class="cls-4" points="39.99 176.8 39.99 184.03 6.31 163.82 6.31 156.59 39.99 176.8"/>
          <polygon class="cls-4" points="39.99 166.6 39.99 173.83 6.31 153.62 6.31 146.39 39.99 166.6"/>
          <polygon class="cls-4" points="39.99 156.41 39.99 163.63 6.31 143.42 6.31 136.2 39.99 156.41"/>
          <polygon class="cls-5" points="51.27 189.07 51.27 196.3 49.79 197.36 39.98 197.36 39.98 197.19 51.27 189.07"/>
          <polygon class="cls-5" points="51.27 178.87 51.27 186.11 39.98 194.23 39.98 186.99 51.27 178.87"/>
          <polygon class="cls-5" points="51.27 168.68 51.27 175.92 39.98 184.03 39.98 176.8 51.27 168.68"/>
          <polygon class="cls-5" points="51.27 158.49 51.27 165.7 39.98 173.82 39.98 166.6 51.27 158.49"/>
          <polygon class="cls-5" points="51.27 148.29 51.27 155.51 39.98 163.63 39.98 156.41 51.27 148.29"/>
          <path class="cls-5" d="M51.27,89.84l-38.42,27.67-6.53,4.71v10.3l33.68,20.2,11.27-8.12v-12.48l-11.27,8.26-27.28-16.37-1.8-1.07,40.34-29.54v-3.55Z"/>
          <polygon class="cls-10" points="51.27 93.39 51.27 95.8 12.72 124.01 10.92 122.94 51.27 93.39"/>
        </g>
      </g>
      <g>
        <g>
          <path class="cls-2" d="M199.84,79.17c10.8,0,17.66,5.98,17.95,15.62h-9.34c-.22-4.6-3.5-7.3-8.76-7.3-5.77,0-9.49,2.77-9.49,7.23,0,3.8,2.04,5.91,6.5,6.93l8.39,1.82c9.12,1.97,13.57,6.64,13.57,14.6,0,9.93-7.74,16.35-19.49,16.35s-18.83-6.06-19.05-15.62h9.34c.07,4.53,3.72,7.23,9.71,7.23s10.14-2.7,10.14-7.15c0-3.58-1.82-5.69-6.2-6.64l-8.47-1.9c-9.05-1.97-13.79-7.15-13.79-15.33,0-9.34,7.74-15.84,18.98-15.84Z"/>
          <path class="cls-2" d="M236.48,108.15l21.6-28.03h11.02l-17.66,22.77,17.88,30.58h-10.8l-13.21-22.7-8.83,11.31v11.39h-9.34v-53.35h9.34v28.03Z"/>
          <path class="cls-2" d="M271.14,80.12h10.44l10.51,19.41c.8,1.46,1.31,2.63,1.9,3.94.66-1.31.95-2.19,1.9-3.94l10.44-19.41h10.15l-17.95,32.33v21.02h-9.34v-21.02l-18.03-32.33Z"/>
          <path class="cls-2" d="M323.11,133.47v-53.35h9.27l25.03,37.81v-37.81h9.2v53.35h-9.2l-25.11-37.81v37.81h-9.2Z"/>
          <path class="cls-2" d="M401.12,134.35c-15.25,0-25.76-11.31-25.76-27.59s10.58-27.59,25.84-27.59,25.91,11.31,25.91,27.59-10.66,27.59-25.98,27.59ZM401.2,88.15c-9.78,0-16.06,7.23-16.06,18.61s6.28,18.61,16.06,18.61,16.06-7.37,16.06-18.61-6.28-18.61-16.06-18.61Z"/>
          <path class="cls-2" d="M435.79,133.47v-53.35h18.68c15.76,0,26.64,10.87,26.64,26.79s-10.66,26.57-26.13,26.57h-19.19ZM445.13,88.73v36.13h8.98c10.66,0,17.15-6.86,17.15-17.95s-6.64-18.17-17.66-18.17h-8.47Z"/>
          <path class="cls-2" d="M489.79,133.47v-53.35h33.13v8.61h-23.79v13.72h21.31v8.25h-21.31v14.16h23.79v8.61h-33.13Z"/>
        </g>
        <g>
          <path class="cls-6" d="M225.15,159.22v4.87h-2.47v-14.12h5.58c2.84,0,4.67,1.85,4.67,4.62s-1.85,4.63-4.67,4.63h-3.11ZM225.15,152.17v4.85h2.59c1.7,0,2.61-.91,2.61-2.45s-.93-2.39-2.57-2.39h-2.63Z"/>
          <path class="cls-6" d="M256.28,164.08l5.1-14.12h2.53l5.1,14.12h-2.61l-1.14-3.26h-5.27l-1.14,3.26h-2.57ZM260.73,158.73h3.82l-1.62-4.56c-.12-.37-.25-.79-.29-1.08-.06.27-.17.69-.31,1.08l-1.6,4.56Z"/>
          <path class="cls-6" d="M294.16,164.08v-14.12h5.39c3.21,0,5.08,1.62,5.08,4.4,0,1.89-.89,3.24-2.55,3.92l2.68,5.79h-2.7l-2.39-5.27h-3.03v5.27h-2.47ZM296.63,156.63h2.92c1.56,0,2.49-.83,2.49-2.26s-.93-2.2-2.49-2.2h-2.92v4.46Z"/>
          <path class="cls-6" d="M329.05,149.97h10.74v2.28h-4.13v11.84h-2.47v-11.84h-4.13v-2.28Z"/>
          <path class="cls-6" d="M365.05,164.08v-14.12h2.45l6.62,10v-10h2.43v14.12h-2.43l-6.64-10v10h-2.43Z"/>
          <path class="cls-6" d="M403.06,164.08v-14.12h8.77v2.28h-6.3v3.63h5.64v2.18h-5.64v3.75h6.3v2.28h-8.77Z"/>
          <path class="cls-6" d="M437.89,164.08v-14.12h5.39c3.21,0,5.08,1.62,5.08,4.4,0,1.89-.89,3.24-2.55,3.92l2.68,5.79h-2.7l-2.39-5.27h-3.03v5.27h-2.47ZM440.36,156.63h2.92c1.56,0,2.49-.83,2.49-2.26s-.93-2.2-2.49-2.2h-2.92v4.46Z"/>
          <path class="cls-6" d="M478.41,149.71c2.86,0,4.67,1.58,4.75,4.13h-2.47c-.06-1.22-.93-1.93-2.32-1.93-1.53,0-2.51.73-2.51,1.91,0,1,.54,1.56,1.72,1.83l2.22.48c2.41.52,3.59,1.76,3.59,3.86,0,2.63-2.05,4.33-5.16,4.33s-4.98-1.6-5.04-4.13h2.47c.02,1.2.98,1.91,2.57,1.91s2.68-.71,2.68-1.89c0-.95-.48-1.51-1.64-1.76l-2.24-.5c-2.39-.52-3.65-1.89-3.65-4.06,0-2.47,2.05-4.19,5.02-4.19Z"/>
        </g>
      </g>
    </g>
  </g>
</svg>
